<?xml version="1.0" encoding="UTF-8" standalone="no"?><!DOCTYPE svg PUBLIC "-//W3C//DTD SVG 1.1//EN" "http://www.w3.org/Graphics/SVG/1.1/DTD/svg11.dtd"><svg width="100%" height="100%" viewBox="0 0 2084 2084" version="1.1" xmlns="http://www.w3.org/2000/svg" xmlns:xlink="http://www.w3.org/1999/xlink" xml:space="preserve" xmlns:serif="http://www.serif.com/" style="fill-rule:evenodd;clip-rule:evenodd;stroke-linecap:round;"><g><g><clipPath id="_clip1"><rect x="544.444" y="511.111" width="1027.778" height="605.556"/></clipPath><g clip-path="url(#_clip1)"><g><clipPath id="_clip2"><rect x="1033.333" y="512.001" width="11.111" height="343.555"/></clipPath><g clip-path="url(#_clip2)"><path d="M1038.954,515.56l0,334.397" style="fill:none;fill-rule:nonzero;stroke:url(#_Linear3);stroke-width:6.75px;"/></g></g><path d="M1146.441,706.619l-41.081,153.342" style="fill:none;fill-rule:nonzero;stroke:url(#_Linear4);stroke-width:6.75px;"/><path d="M1336.306,589.106l-170.855,295.92" style="fill:none;fill-rule:nonzero;stroke:url(#_Linear5);stroke-width:6.75px;"/><path d="M1325.564,815.929l-110.612,110.612" style="fill:none;fill-rule:nonzero;stroke:url(#_Linear6);stroke-width:6.75px;"/><g><clipPath id="_clip7"><rect x="1216.667" y="761.111" width="351.324" height="255.556"/></clipPath><g clip-path="url(#_clip7)"><path d="M1563.194,801.584l-305.989,176.649" style="fill:none;fill-rule:nonzero;stroke:url(#_Linear8);stroke-width:6.75px;"/></g></g><path d="M1408.724,993.338l-130.838,42.795" style="fill:none;fill-rule:nonzero;stroke:url(#_Linear9);stroke-width:6.75px;"/><path d="M931.228,706.706l41.081,153.277" style="fill:none;fill-rule:nonzero;stroke:url(#_Linear10);stroke-width:6.75px;"/><path d="M754.536,612.24l157.378,272.613" style="fill:none;fill-rule:nonzero;stroke:url(#_Linear11);stroke-width:6.75px;"/><path d="M748.025,822.114l108.312,108.312" style="fill:none;fill-rule:nonzero;stroke:url(#_Linear12);stroke-width:6.75px;"/><g><clipPath id="_clip13"><rect x="804.753" y="873.741" width="461.914" height="229.557"/></clipPath><g clip-path="url(#_clip13)"><path d="M1266.363,1104.536l-4.384,0c0,-124.848 -101.562,-226.411 -226.411,-226.411c-124.826,0 -226.411,101.562 -226.411,226.411l-4.362,0c0,-61.654 24.002,-119.618 67.6,-163.194c43.576,-43.598 101.541,-67.6 163.173,-67.6c61.654,0 119.596,24.002 163.194,67.6c43.576,43.576 67.6,101.541 67.6,163.194Z" style="fill:#f8bb85;fill-rule:nonzero;"/></g></g><g><clipPath id="_clip14"><rect x="548.003" y="783.333" width="307.552" height="233.333"/></clipPath><g clip-path="url(#_clip14)"><path d="M553.125,825.282l262.999,151.823" style="fill:none;fill-rule:nonzero;stroke:url(#_Linear15);stroke-width:6.75px;"/></g></g><path d="M661.089,1003.125l128.754,34.505" style="fill:none;fill-rule:nonzero;stroke:url(#_Linear16);stroke-width:6.75px;"/><g><g><clipPath id="_clip17"><path d="M1274.718,1110.829l-475.868,0c0,-130.946 106.532,-237.088 237.934,-237.088c131.402,0 237.934,106.141 237.934,237.088Z"/></clipPath><g clip-path="url(#_clip17)"><g><g><g><g><clipPath id="_clip18"><path d="M1274.718,1110.829l-475.868,0c0,-130.946 106.532,-237.088 237.934,-237.088c131.402,0 237.934,106.141 237.934,237.088Z"/></clipPath><g clip-path="url(#_clip18)"><rect x="798.85" y="873.741" width="475.868" height="237.044" style="fill:url(#_Linear19);fill-rule:nonzero;"/></g></g></g></g></g></g></g></g><path d="M553.581,1107.444l1009.158,0" style="fill:none;fill-rule:nonzero;stroke:url(#_Linear20);stroke-width:6.75px;"/></g></g></g><g><g><g><g><g><path d="M538.656,1337.025c-19.162,0 -33.832,-4.905 -44.01,-14.757c-10.2,-9.896 -15.278,-24.479 -15.278,-43.75l0,-83.333l26.215,0l0,82.726c0,12.153 2.821,21.224 8.507,27.17c5.664,5.968 13.845,8.941 24.566,8.941c10.872,0 19.119,-2.973 24.74,-8.941c5.599,-5.946 8.42,-15.017 8.42,-27.17l0,-82.726l25.955,0l0,83.333c0,19.162 -5.035,33.724 -15.104,43.663c-10.026,9.896 -24.696,14.844 -44.01,14.844Z" style="fill:#fff;fill-rule:nonzero;"/></g></g></g><g><g><g><path d="M609.534,1336.852l-1.823,-21.875l15.451,-0.781c3.863,-0.217 7.14,-1.085 9.809,-2.604c2.713,-1.562 4.774,-3.776 6.163,-6.684c1.389,-2.951 2.083,-6.38 2.083,-10.33l0,-99.392l26.215,0l0,100c0,8.333 -1.562,15.451 -4.688,21.354c-3.082,5.859 -7.595,10.417 -13.542,13.715c-5.968,3.299 -13.26,5.208 -21.875,5.729l-17.795,0.868Z" style="fill:#fff;fill-rule:nonzero;"/></g></g></g><g><g><g><path d="M681.537,1336.852l-1.823,-21.875l15.451,-0.781c3.863,-0.217 7.14,-1.085 9.809,-2.604c2.713,-1.562 4.774,-3.776 6.163,-6.684c1.389,-2.951 2.083,-6.38 2.083,-10.33l0,-99.392l26.215,0l0,100c0,8.333 -1.562,15.451 -4.688,21.354c-3.082,5.859 -7.595,10.417 -13.542,13.715c-5.968,3.299 -13.26,5.208 -21.875,5.729l-17.795,0.868Z" style="fill:#fff;fill-rule:nonzero;"/></g></g></g><g><g><g><path d="M805.857,1335.029l0,-72.222l5.208,16.667l-58.507,-84.288l29.688,0l38.715,56.337l-3.385,0l38.715,-56.337l28.906,0l-58.333,84.288l5.208,-16.667l0,72.222l-26.215,0Z" style="fill:#fff;fill-rule:nonzero;"/></g></g></g><g><g><g><path d="M870.32,1335.029l63.108,-139.844l22.222,0l63.021,139.844l-26.736,0l-16.84,-39.236l11.111,8.073l-83.767,0l11.111,-8.073l-16.667,39.236l-26.562,0Zm73.785,-111.892l-27.778,65.712l-5.122,-6.163l66.233,0l-4.948,6.163l-27.778,-65.712l-0.608,0Z" style="fill:#fff;fill-rule:nonzero;"/></g></g></g><g><g><g><path d="M1036.943,1335.029l0,-139.844l26.215,0l0,117.448l67.014,0l0,22.396l-93.229,0Z" style="fill:#fff;fill-rule:nonzero;"/></g></g></g><g><g><g><path d="M1207.955,1337.025c-10.308,0 -19.618,-1.693 -27.951,-5.035c-8.333,-3.407 -15.495,-8.247 -21.441,-14.497c-5.968,-6.293 -10.547,-13.889 -13.715,-22.743c-3.19,-8.854 -4.774,-18.772 -4.774,-29.774c0,-10.938 1.584,-20.79 4.774,-29.601c3.168,-8.789 7.747,-16.319 13.715,-22.569c5.946,-6.293 13.108,-11.133 21.441,-14.497c8.333,-3.407 17.643,-5.122 27.951,-5.122c10.178,0 19.444,1.714 27.778,5.122c8.333,3.364 15.451,8.16 21.354,14.41c5.946,6.207 10.525,13.694 13.715,22.483c3.168,8.746 4.774,18.62 4.774,29.601c0,11.003 -1.606,20.92 -4.774,29.774c-3.19,8.854 -7.769,16.471 -13.715,22.83c-5.903,6.315 -13.021,11.176 -21.354,14.583c-8.333,3.342 -17.6,5.035 -27.778,5.035Zm0,-22.656c8.55,0 15.842,-1.91 21.875,-5.729c6.011,-3.819 10.634,-9.418 13.889,-16.84c3.234,-7.4 4.861,-16.341 4.861,-26.823c0,-10.525 -1.606,-19.466 -4.774,-26.823c-3.125,-7.335 -7.769,-12.891 -13.889,-16.667c-6.076,-3.754 -13.411,-5.642 -21.962,-5.642c-8.637,0 -15.972,1.888 -22.049,5.642c-6.076,3.776 -10.742,9.332 -13.976,16.667c-3.255,7.357 -4.861,16.298 -4.861,26.823c0,10.482 1.606,19.423 4.861,26.823c3.234,7.422 7.899,13.021 13.976,16.84c6.076,3.819 13.411,5.729 22.049,5.729Z" style="fill:#fff;fill-rule:nonzero;"/></g></g></g></g></g><g><g><g><g><g><path d="M1371.443,1312.513l-32.812,-98.003l12.326,0l27.951,85.677l-3.038,0l29.601,-85.677l9.549,0l29.34,85.764l-2.604,0l28.038,-85.764l11.979,0l-32.986,98.003l-10.938,0l-28.472,-82.812l1.649,0l-28.906,82.812l-10.677,0Z" style="fill:#f8bb85;fill-rule:nonzero;"/></g></g></g><g><g><g><path d="M1521.9,1313.729c-7.422,0 -13.802,-1.389 -19.184,-4.167c-5.382,-2.821 -9.527,-6.879 -12.413,-12.153c-2.843,-5.317 -4.253,-11.632 -4.253,-18.924c0,-6.944 1.345,-13.043 4.08,-18.316c2.713,-5.317 6.554,-9.484 11.545,-12.5c5.035,-2.995 10.872,-4.514 17.535,-4.514c6.532,0 12.023,1.389 16.493,4.167c4.514,2.778 7.943,6.727 10.33,11.806c2.431,5.035 3.646,11.068 3.646,18.056l0,4.167l-54.774,0l0,-7.986l46.962,0l-2.344,2.17c0,-7.4 -1.714,-13.151 -5.122,-17.274c-3.429,-4.102 -8.42,-6.163 -15.017,-6.163c-4.514,0 -8.42,1.042 -11.719,3.125c-3.299,2.083 -5.859,5.013 -7.639,8.767c-1.736,3.711 -2.604,8.116 -2.604,13.194l0,1.128c0,5.686 0.955,10.417 2.865,14.236c1.91,3.776 4.709,6.662 8.42,8.681c3.689,1.975 8.16,2.951 13.368,2.951c3.863,0 7.682,-0.564 11.458,-1.736c3.819,-1.15 7.422,-3.125 10.851,-5.903l4.08,8.333c-3.364,2.908 -7.444,5.1 -12.24,6.597c-4.753,1.497 -9.527,2.257 -14.323,2.257Z" style="fill:#f8bb85;fill-rule:nonzero;"/></g></g></g><g><g><g><path d="M1603.355,1313.729c-6.076,0 -11.328,-1.497 -15.712,-4.514c-4.405,-2.995 -7.465,-7.075 -9.201,-12.24l0.694,0l0,15.538l-11.285,0l0,-98.003l11.806,0l0,44.878l-0.781,0c1.736,-4.97 4.731,-8.898 9.028,-11.806c4.34,-2.951 9.505,-4.427 15.538,-4.427c6.185,0 11.567,1.476 16.146,4.427c4.622,2.908 8.181,6.988 10.677,12.24c2.474,5.208 3.733,11.437 3.733,18.663c0,7.01 -1.28,13.194 -3.819,18.576c-2.561,5.339 -6.12,9.44 -10.677,12.326c-4.579,2.908 -9.961,4.34 -16.146,4.34Zm-2.517,-9.549c6.532,0 11.719,-2.257 15.538,-6.771c3.819,-4.557 5.729,-10.872 5.729,-18.924c0,-8.16 -1.91,-14.453 -5.729,-18.924c-3.819,-4.514 -9.006,-6.771 -15.538,-6.771c-6.489,0 -11.675,2.257 -15.538,6.771c-3.819,4.47 -5.729,10.764 -5.729,18.924c0,8.051 1.91,14.366 5.729,18.924c3.863,4.514 9.049,6.771 15.538,6.771Z" style="fill:#f8bb85;fill-rule:nonzero;"/></g></g></g></g></g><defs><linearGradient id="_Linear3" x1="0" y1="0" x2="1" y2="0" gradientUnits="userSpaceOnUse" gradientTransform="matrix(0,334.395457,-334.395457,0,1038.9486,515.554486)"><stop offset="0" style="stop-color:#fed66a;stop-opacity:1"/><stop offset="0.02" style="stop-color:#fed56a;stop-opacity:1"/><stop offset="0.03" style="stop-color:#fed569;stop-opacity:1"/><stop offset="0.17" style="stop-color:#fecc63;stop-opacity:1"/><stop offset="0.2" style="stop-color:#feca62;stop-opacity:1"/><stop offset="0.22" style="stop-color:#fec962;stop-opacity:1"/><stop offset="0.25" style="stop-color:#fec860;stop-opacity:1"/><stop offset="0.3" style="stop-color:#fec55e;stop-opacity:1"/><stop offset="0.33" style="stop-color:#fec35d;stop-opacity:1"/><stop offset="0.38" style="stop-color:#fec05b;stop-opacity:1"/><stop offset="0.41" style="stop-color:#febe5a;stop-opacity:1"/><stop offset="0.42" style="stop-color:#febe59;stop-opacity:1"/><stop offset="0.45" style="stop-color:#febc58;stop-opacity:1"/><stop offset="0.55" style="stop-color:#feb654;stop-opacity:1"/><stop offset="0.58" style="stop-color:#feb453;stop-opacity:1"/><stop offset="0.59" style="stop-color:#feb353;stop-opacity:1"/><stop offset="0.63" style="stop-color:#feb251;stop-opacity:1"/><stop offset="0.67" style="stop-color:#feaf4f;stop-opacity:1"/><stop offset="0.7" style="stop-color:#fead4e;stop-opacity:1"/><stop offset="0.8" style="stop-color:#fea74a;stop-opacity:1"/><stop offset="0.84" style="stop-color:#fea548;stop-opacity:1"/><stop offset="0.88" style="stop-color:#fea347;stop-opacity:1"/><stop offset="0.97" style="stop-color:#fe9d43;stop-opacity:1"/><stop offset="0.98" style="stop-color:#fe9c43;stop-opacity:1"/><stop offset="1" style="stop-color:#fe9c42;stop-opacity:1"/></linearGradient><linearGradient id="_Linear4" x1="0" y1="0" x2="1" y2="0" gradientUnits="userSpaceOnUse" gradientTransform="matrix(-41.960898,156.59986,-156.59986,-41.960898,1146.883831,704.998933)"><stop offset="0" style="stop-color:#fed66a;stop-opacity:1"/><stop offset="0.02" style="stop-color:#fed56a;stop-opacity:1"/><stop offset="0.03" style="stop-color:#fed569;stop-opacity:1"/><stop offset="0.17" style="stop-color:#fecc63;stop-opacity:1"/><stop offset="0.2" style="stop-color:#feca62;stop-opacity:1"/><stop offset="0.22" style="stop-color:#fec962;stop-opacity:1"/><stop offset="0.25" style="stop-color:#fec860;stop-opacity:1"/><stop offset="0.3" style="stop-color:#fec55e;stop-opacity:1"/><stop offset="0.33" style="stop-color:#fec35d;stop-opacity:1"/><stop offset="0.38" style="stop-color:#fec05b;stop-opacity:1"/><stop offset="0.41" style="stop-color:#febe5a;stop-opacity:1"/><stop offset="0.42" style="stop-color:#febe59;stop-opacity:1"/><stop offset="0.45" style="stop-color:#febc58;stop-opacity:1"/><stop offset="0.55" style="stop-color:#feb654;stop-opacity:1"/><stop offset="0.58" style="stop-color:#feb453;stop-opacity:1"/><stop offset="0.59" style="stop-color:#feb353;stop-opacity:1"/><stop offset="0.63" style="stop-color:#feb251;stop-opacity:1"/><stop offset="0.67" style="stop-color:#feaf4f;stop-opacity:1"/><stop offset="0.7" style="stop-color:#fead4e;stop-opacity:1"/><stop offset="0.8" style="stop-color:#fea74a;stop-opacity:1"/><stop offset="0.84" style="stop-color:#fea548;stop-opacity:1"/><stop offset="0.88" style="stop-color:#fea347;stop-opacity:1"/><stop offset="0.97" style="stop-color:#fe9d43;stop-opacity:1"/><stop offset="0.98" style="stop-color:#fe9c43;stop-opacity:1"/><stop offset="1" style="stop-color:#fe9c42;stop-opacity:1"/></linearGradient><linearGradient id="_Linear5" x1="0" y1="0" x2="1" y2="0" gradientUnits="userSpaceOnUse" gradientTransform="matrix(-173.772415,300.982807,-300.982807,-173.772415,1337.767162,586.584178)"><stop offset="0" style="stop-color:#fed66a;stop-opacity:1"/><stop offset="0.11" style="stop-color:#fed066;stop-opacity:1"/><stop offset="0.14" style="stop-color:#fece65;stop-opacity:1"/><stop offset="0.16" style="stop-color:#fece64;stop-opacity:1"/><stop offset="0.2" style="stop-color:#fecb62;stop-opacity:1"/><stop offset="0.23" style="stop-color:#fec961;stop-opacity:1"/><stop offset="0.38" style="stop-color:#fec05b;stop-opacity:1"/><stop offset="0.41" style="stop-color:#febf5a;stop-opacity:1"/><stop offset="0.59" style="stop-color:#feb352;stop-opacity:1"/><stop offset="0.63" style="stop-color:#feb151;stop-opacity:1"/><stop offset="0.77" style="stop-color:#fea94b;stop-opacity:1"/><stop offset="0.8" style="stop-color:#fea74a;stop-opacity:1"/><stop offset="0.84" style="stop-color:#fea448;stop-opacity:1"/><stop offset="0.86" style="stop-color:#fea348;stop-opacity:1"/><stop offset="0.89" style="stop-color:#fea246;stop-opacity:1"/><stop offset="0.94" style="stop-color:#fe9f44;stop-opacity:1"/><stop offset="1" style="stop-color:#fe9b42;stop-opacity:1"/></linearGradient><linearGradient id="_Linear6" x1="0" y1="0" x2="1" y2="0" gradientUnits="userSpaceOnUse" gradientTransform="matrix(-115.395361,115.395361,-115.395361,-115.395361,1327.960794,813.532764)"><stop offset="0" style="stop-color:#fed66a;stop-opacity:1"/><stop offset="0.11" style="stop-color:#fed066;stop-opacity:1"/><stop offset="0.13" style="stop-color:#fecf66;stop-opacity:1"/><stop offset="0.16" style="stop-color:#fece64;stop-opacity:1"/><stop offset="0.2" style="stop-color:#fecb62;stop-opacity:1"/><stop offset="0.23" style="stop-color:#fec961;stop-opacity:1"/><stop offset="0.38" style="stop-color:#fec05b;stop-opacity:1"/><stop offset="0.41" style="stop-color:#febf5a;stop-opacity:1"/><stop offset="0.59" style="stop-color:#feb352;stop-opacity:1"/><stop offset="0.63" style="stop-color:#feb151;stop-opacity:1"/><stop offset="0.81" style="stop-color:#fea649;stop-opacity:1"/><stop offset="0.88" style="stop-color:#fea247;stop-opacity:1"/><stop offset="0.89" style="stop-color:#fea246;stop-opacity:1"/><stop offset="0.98" style="stop-color:#fe9c42;stop-opacity:1"/><stop offset="1" style="stop-color:#fe9b42;stop-opacity:1"/></linearGradient><linearGradient id="_Linear8" x1="0" y1="0" x2="1" y2="0" gradientUnits="userSpaceOnUse" gradientTransform="matrix(-312.899404,180.652462,-180.652462,-312.899404,1566.647165,799.580758)"><stop offset="0" style="stop-color:#fed66a;stop-opacity:1"/><stop offset="0.11" style="stop-color:#fed066;stop-opacity:1"/><stop offset="0.16" style="stop-color:#fece64;stop-opacity:1"/><stop offset="0.19" style="stop-color:#fecc63;stop-opacity:1"/><stop offset="0.38" style="stop-color:#fec05b;stop-opacity:1"/><stop offset="0.41" style="stop-color:#febf5a;stop-opacity:1"/><stop offset="0.59" style="stop-color:#feb352;stop-opacity:1"/><stop offset="0.63" style="stop-color:#feb151;stop-opacity:1"/><stop offset="0.64" style="stop-color:#feb051;stop-opacity:1"/><stop offset="0.67" style="stop-color:#feaf4f;stop-opacity:1"/><stop offset="0.81" style="stop-color:#fea649;stop-opacity:1"/><stop offset="0.84" style="stop-color:#fea448;stop-opacity:1"/><stop offset="0.89" style="stop-color:#fea146;stop-opacity:1"/><stop offset="0.91" style="stop-color:#fea046;stop-opacity:1"/><stop offset="0.94" style="stop-color:#fe9f44;stop-opacity:1"/><stop offset="0.98" style="stop-color:#fe9c42;stop-opacity:1"/><stop offset="1" style="stop-color:#fe9b42;stop-opacity:1"/></linearGradient><linearGradient id="_Linear9" x1="0" y1="0" x2="1" y2="0" gradientUnits="userSpaceOnUse" gradientTransform="matrix(-138.522217,45.308558,-45.308558,-138.522217,1412.56399,992.076966)"><stop offset="0" style="stop-color:#fed66a;stop-opacity:1"/><stop offset="0.06" style="stop-color:#fed368;stop-opacity:1"/><stop offset="0.11" style="stop-color:#fed166;stop-opacity:1"/><stop offset="0.14" style="stop-color:#fecf65;stop-opacity:1"/><stop offset="0.33" style="stop-color:#fec35d;stop-opacity:1"/><stop offset="0.36" style="stop-color:#fec15c;stop-opacity:1"/><stop offset="0.38" style="stop-color:#fec15b;stop-opacity:1"/><stop offset="0.41" style="stop-color:#febf5a;stop-opacity:1"/><stop offset="0.64" style="stop-color:#feb050;stop-opacity:1"/><stop offset="0.66" style="stop-color:#feaf50;stop-opacity:1"/><stop offset="0.67" style="stop-color:#feaf4f;stop-opacity:1"/><stop offset="0.86" style="stop-color:#fea347;stop-opacity:1"/><stop offset="0.89" style="stop-color:#fea146;stop-opacity:1"/><stop offset="0.94" style="stop-color:#fe9e44;stop-opacity:1"/><stop offset="0.98" style="stop-color:#fe9c42;stop-opacity:1"/><stop offset="1" style="stop-color:#fe9b42;stop-opacity:1"/></linearGradient><linearGradient id="_Linear10" x1="0" y1="0" x2="1" y2="0" gradientUnits="userSpaceOnUse" gradientTransform="matrix(41.940656,156.524316,-156.524316,41.940656,930.800475,705.080417)"><stop offset="0" style="stop-color:#fed66a;stop-opacity:1"/><stop offset="0.03" style="stop-color:#fed469;stop-opacity:1"/><stop offset="0.17" style="stop-color:#fecc63;stop-opacity:1"/><stop offset="0.2" style="stop-color:#feca62;stop-opacity:1"/><stop offset="0.22" style="stop-color:#fec962;stop-opacity:1"/><stop offset="0.25" style="stop-color:#fec860;stop-opacity:1"/><stop offset="0.3" style="stop-color:#fec55e;stop-opacity:1"/><stop offset="0.33" style="stop-color:#fec35d;stop-opacity:1"/><stop offset="0.38" style="stop-color:#fec05b;stop-opacity:1"/><stop offset="0.41" style="stop-color:#febe5a;stop-opacity:1"/><stop offset="0.42" style="stop-color:#febe59;stop-opacity:1"/><stop offset="0.45" style="stop-color:#febc58;stop-opacity:1"/><stop offset="0.55" style="stop-color:#feb654;stop-opacity:1"/><stop offset="0.58" style="stop-color:#feb453;stop-opacity:1"/><stop offset="0.59" style="stop-color:#feb353;stop-opacity:1"/><stop offset="0.63" style="stop-color:#feb251;stop-opacity:1"/><stop offset="0.67" style="stop-color:#feaf4f;stop-opacity:1"/><stop offset="0.7" style="stop-color:#fead4e;stop-opacity:1"/><stop offset="0.8" style="stop-color:#fea74a;stop-opacity:1"/><stop offset="0.84" style="stop-color:#fea548;stop-opacity:1"/><stop offset="0.88" style="stop-color:#fea347;stop-opacity:1"/><stop offset="0.97" style="stop-color:#fe9d43;stop-opacity:1"/><stop offset="0.98" style="stop-color:#fe9c43;stop-opacity:1"/><stop offset="1" style="stop-color:#fe9c42;stop-opacity:1"/></linearGradient><linearGradient id="_Linear11" x1="0" y1="0" x2="1" y2="0" gradientUnits="userSpaceOnUse" gradientTransform="matrix(160.314597,277.673171,-277.673171,160.314597,753.071543,609.715778)"><stop offset="0" style="stop-color:#fed66a;stop-opacity:1"/><stop offset="0.11" style="stop-color:#fed066;stop-opacity:1"/><stop offset="0.14" style="stop-color:#fece65;stop-opacity:1"/><stop offset="0.16" style="stop-color:#fece64;stop-opacity:1"/><stop offset="0.2" style="stop-color:#fecb62;stop-opacity:1"/><stop offset="0.23" style="stop-color:#fec961;stop-opacity:1"/><stop offset="0.38" style="stop-color:#fec05b;stop-opacity:1"/><stop offset="0.39" style="stop-color:#febf5b;stop-opacity:1"/><stop offset="0.41" style="stop-color:#febf5a;stop-opacity:1"/><stop offset="0.59" style="stop-color:#feb352;stop-opacity:1"/><stop offset="0.63" style="stop-color:#feb151;stop-opacity:1"/><stop offset="0.77" style="stop-color:#fea94b;stop-opacity:1"/><stop offset="0.8" style="stop-color:#fea74a;stop-opacity:1"/><stop offset="0.84" style="stop-color:#fea448;stop-opacity:1"/><stop offset="0.86" style="stop-color:#fea348;stop-opacity:1"/><stop offset="0.89" style="stop-color:#fea246;stop-opacity:1"/><stop offset="0.94" style="stop-color:#fe9f44;stop-opacity:1"/><stop offset="1" style="stop-color:#fe9b42;stop-opacity:1"/></linearGradient><linearGradient id="_Linear12" x1="0" y1="0" x2="1" y2="0" gradientUnits="userSpaceOnUse" gradientTransform="matrix(113.087156,113.087156,-113.087156,113.087156,745.6349,819.732392)"><stop offset="0" style="stop-color:#fed66a;stop-opacity:1"/><stop offset="0.11" style="stop-color:#fed066;stop-opacity:1"/><stop offset="0.13" style="stop-color:#fecf66;stop-opacity:1"/><stop offset="0.16" style="stop-color:#fece64;stop-opacity:1"/><stop offset="0.2" style="stop-color:#fecb62;stop-opacity:1"/><stop offset="0.23" style="stop-color:#fec961;stop-opacity:1"/><stop offset="0.38" style="stop-color:#fec05b;stop-opacity:1"/><stop offset="0.41" style="stop-color:#febf5a;stop-opacity:1"/><stop offset="0.59" style="stop-color:#feb352;stop-opacity:1"/><stop offset="0.63" style="stop-color:#feb151;stop-opacity:1"/><stop offset="0.81" style="stop-color:#fea649;stop-opacity:1"/><stop offset="0.88" style="stop-color:#fea247;stop-opacity:1"/><stop offset="0.89" style="stop-color:#fea246;stop-opacity:1"/><stop offset="0.98" style="stop-color:#fe9c42;stop-opacity:1"/><stop offset="1" style="stop-color:#fe9b42;stop-opacity:1"/></linearGradient><linearGradient id="_Linear15" x1="0" y1="0" x2="1" y2="0" gradientUnits="userSpaceOnUse" gradientTransform="matrix(269.905785,155.830097,-155.830097,269.905785,549.676151,823.282153)"><stop offset="0" style="stop-color:#fed66a;stop-opacity:1"/><stop offset="0.11" style="stop-color:#fed066;stop-opacity:1"/><stop offset="0.16" style="stop-color:#fece64;stop-opacity:1"/><stop offset="0.19" style="stop-color:#fecc63;stop-opacity:1"/><stop offset="0.38" style="stop-color:#fec05b;stop-opacity:1"/><stop offset="0.41" style="stop-color:#febf5a;stop-opacity:1"/><stop offset="0.59" style="stop-color:#feb352;stop-opacity:1"/><stop offset="0.63" style="stop-color:#feb151;stop-opacity:1"/><stop offset="0.64" style="stop-color:#feb051;stop-opacity:1"/><stop offset="0.67" style="stop-color:#feaf4f;stop-opacity:1"/><stop offset="0.81" style="stop-color:#fea649;stop-opacity:1"/><stop offset="0.84" style="stop-color:#fea448;stop-opacity:1"/><stop offset="0.89" style="stop-color:#fea146;stop-opacity:1"/><stop offset="0.91" style="stop-color:#fea046;stop-opacity:1"/><stop offset="0.94" style="stop-color:#fe9f44;stop-opacity:1"/><stop offset="0.98" style="stop-color:#fe9c42;stop-opacity:1"/><stop offset="1" style="stop-color:#fe9b42;stop-opacity:1"/></linearGradient><linearGradient id="_Linear16" x1="0" y1="0" x2="1" y2="0" gradientUnits="userSpaceOnUse" gradientTransform="matrix(136.470639,36.567278,-36.567278,136.470639,657.232007,1002.09254)"><stop offset="0" style="stop-color:#fed66a;stop-opacity:1"/><stop offset="0.06" style="stop-color:#fed368;stop-opacity:1"/><stop offset="0.08" style="stop-color:#fed268;stop-opacity:1"/><stop offset="0.11" style="stop-color:#fed166;stop-opacity:1"/><stop offset="0.14" style="stop-color:#fecf65;stop-opacity:1"/><stop offset="0.33" style="stop-color:#fec35d;stop-opacity:1"/><stop offset="0.36" style="stop-color:#fec15c;stop-opacity:1"/><stop offset="0.38" style="stop-color:#fec15b;stop-opacity:1"/><stop offset="0.41" style="stop-color:#febf5a;stop-opacity:1"/><stop offset="0.64" style="stop-color:#feb050;stop-opacity:1"/><stop offset="0.67" style="stop-color:#feaf4f;stop-opacity:1"/><stop offset="0.86" style="stop-color:#fea347;stop-opacity:1"/><stop offset="0.89" style="stop-color:#fea146;stop-opacity:1"/><stop offset="0.94" style="stop-color:#fe9e44;stop-opacity:1"/><stop offset="0.98" style="stop-color:#fe9c42;stop-opacity:1"/><stop offset="1" style="stop-color:#fe9b42;stop-opacity:1"/></linearGradient><linearGradient id="_Linear19" x1="0" y1="0" x2="1" y2="0" gradientUnits="userSpaceOnUse" gradientTransform="matrix(475.8474,0,0,475.8474,798.85935,992.274144)"><stop offset="0" style="stop-color:#fed66a;stop-opacity:1"/><stop offset="0.11" style="stop-color:#fed066;stop-opacity:1"/><stop offset="0.13" style="stop-color:#fecf66;stop-opacity:1"/><stop offset="0.16" style="stop-color:#fece64;stop-opacity:1"/><stop offset="0.2" style="stop-color:#fecb62;stop-opacity:1"/><stop offset="0.23" style="stop-color:#fec961;stop-opacity:1"/><stop offset="0.38" style="stop-color:#fec05b;stop-opacity:1"/><stop offset="0.41" style="stop-color:#febf5a;stop-opacity:1"/><stop offset="0.59" style="stop-color:#feb352;stop-opacity:1"/><stop offset="0.63" style="stop-color:#feb151;stop-opacity:1"/><stop offset="0.81" style="stop-color:#fea649;stop-opacity:1"/><stop offset="0.88" style="stop-color:#fea247;stop-opacity:1"/><stop offset="0.89" style="stop-color:#fea246;stop-opacity:1"/><stop offset="0.98" style="stop-color:#fe9c42;stop-opacity:1"/><stop offset="1" style="stop-color:#fe9b42;stop-opacity:1"/></linearGradient><linearGradient id="_Linear20" x1="0" y1="0" x2="1" y2="0" gradientUnits="userSpaceOnUse" gradientTransform="matrix(1015.905452,0,-0,1015.905452,550.214711,1107.442431)"><stop offset="0" style="stop-color:#fed66a;stop-opacity:1"/><stop offset="0.11" style="stop-color:#fed066;stop-opacity:1"/><stop offset="0.13" style="stop-color:#fecf66;stop-opacity:1"/><stop offset="0.16" style="stop-color:#fece64;stop-opacity:1"/><stop offset="0.2" style="stop-color:#fecb62;stop-opacity:1"/><stop offset="0.23" style="stop-color:#fec961;stop-opacity:1"/><stop offset="0.38" style="stop-color:#fec05b;stop-opacity:1"/><stop offset="0.41" style="stop-color:#febf5a;stop-opacity:1"/><stop offset="0.59" style="stop-color:#feb352;stop-opacity:1"/><stop offset="0.63" style="stop-color:#feb151;stop-opacity:1"/><stop offset="0.81" style="stop-color:#fea649;stop-opacity:1"/><stop offset="0.88" style="stop-color:#fea247;stop-opacity:1"/><stop offset="0.89" style="stop-color:#fea246;stop-opacity:1"/><stop offset="0.98" style="stop-color:#fe9c42;stop-opacity:1"/><stop offset="1" style="stop-color:#fe9b42;stop-opacity:1"/></linearGradient></defs></svg>